# xmcd CD database file
#
# Track frame offsets:
#	182
#	32622
#	46132
#	77187
#	104437
#	130310
#	152580
#	190315
#
# Disc length: 3113 seconds
#
# Revision: 0
# Processed by: cddbd v1.4PL0 Copyright (c) Steve Scherf et al.
# Submitted via: CDex 1.50beta10
#
DISCID=600c2708
DTITLE=George Benson - (Body talk) - (Bad Benson)
DYEAR=1973
DGENRE=Jazz
TTITLE0=Take five
TTITLE1=Summerwishes, winter dreams
TTITLE2=My latin brother
TTITLE3=No sooner said than done
TTITLE4=Full compass
TTITLE5=The changing world
TTITLE6=Body talk
TTITLE7=Top of the world
EXTD=YEAR: 1973
EXTT0=
EXTT1=
EXTT2=
EXTT3=
EXTT4=
EXTT5=
EXTT6=
EXTT7=
PLAYORDER=
